[Header]                  # Header keywords are followed by a single value
FileType htr              # single word string
DataType HTRS             # Hierarchical translations followed by rotations and Scale
FileVersion 1             # integer
NumSegments   22        # integer
NumFrames  4          # integer
DataFrameRate    60      # integer
EulerRotationOrder ZYX    # one word string
CalibrationUnits mm   # one word string
RotationUnits Degrees     # one word string
GlobalAxisofGravity Y        # character, X or Y or Z
BoneLengthAxis Y
ScaleFactor 1.0000
[SegmentNames&Hierarchy]
#CHILD         PARENT
LowerTorso	GLOBAL
MidTorso1	LowerTorso
MidTorso2	MidTorso1
UpperTorso	MidTorso2
Neck	UpperTorso
Head	Neck
LCollar	UpperTorso
LUpArm	LCollar
LLowArm	LUpArm
LHand	LLowArm
RCollar	UpperTorso
RUpArm	RCollar
RLowArm	RUpArm
RHand	RLowArm
RThigh	LowerTorso
RLowLeg	RThigh
RFoot	RLowLeg
RToe	RFoot
LThigh	LowerTorso
LLowLeg	LThigh
LFoot	LLowLeg
LToe	LFoot
[BasePosition]
#SegmentName Tx, Ty, Tz, Rx, Ry, Rz, BoneLength
LowerTorso	245.857281	950.546486	248.637529	3.098927	-0.002210	0.042162	59.711333	
MidTorso1	0.000000	59.711333	0.000000	12.937915	-0.002675	-0.030860	59.789096	
MidTorso2	0.000000	59.789096	0.000000	-8.588562	0.003459	0.011437	83.428957	
UpperTorso	0.000000	83.428957	0.000000	-7.932331	-0.001012	-0.030752	241.957510	
Neck	0.000000	241.957510	0.000000	-0.094097	0.000027	0.097203	231.829248	
Head	0.000000	231.829248	0.000000	90.077927	-0.000108	-0.089730	91.574582	
LCollar	6.813599	237.360039	0.023153	2.387721	-0.015547	-90.013255	183.371476	
LUpArm	0.000000	183.371476	0.000000	5.326590	-0.698152	6.338799	275.550262	
LLowArm	0.000000	275.550262	0.000000	0.023606	-0.000027	0.019344	209.826044	
LHand	0.000000	209.826044	0.000000	0.056212	0.000012	-0.012212	145.298309	
RCollar	-7.320367	237.102711	-0.039007	12.450709	0.004248	90.115141	167.861514	
RUpArm	0.000000	167.861514	0.000000	-6.122028	-0.820027	-2.646363	291.470253	
RLowArm	0.000000	291.470253	0.000000	0.000001	0.000000	-0.000274	217.757286	
RHand	0.000000	217.757286	0.000000	0.000373	0.000000	0.000511	137.536656	
RThigh	-124.450736	-52.205152	84.621319	5.924306	0.309605	177.207098	421.029795	
RLowLeg	0.000000	421.029795	0.000000	-15.759515	-0.017515	3.120486	365.105663	
RFoot	0.000000	365.105663	0.000000	55.897303	0.149984	-4.373210	148.323736	
RToe	0.000000	148.323736	0.000000	45.100933	2.167436	3.449341	115.306227	
LThigh	124.374466	-52.388373	84.621456	5.928259	-0.221338	-178.140447	426.796764	
LLowLeg	0.000000	426.796764	0.000000	-15.759694	0.017551	-3.120303	361.153822	
LFoot	0.000000	361.153822	0.000000	55.897848	-0.150027	4.373120	146.718976	
LToe	0.000000	146.718976	0.000000	45.100748	-2.167253	-3.449489	114.060784	
#Beginning of Data. Separated by tabs
[LowerTorso]
#Fr     Tx      Ty      Tz      Rx      Ry      Rz      SF
214	-149.470657	-8.692262	-286.701416	1.839451	4.428806	1.056641	1.000000	
215	-145.213455	-10.162542	-277.378571	1.873564	4.342196	0.800595	1.000000	
216	-140.587326	-11.868491	-267.793793	1.869696	4.216320	0.566506	1.000000	
217	-135.649200	-13.615587	-258.114227	1.821924	4.026355	0.403709	1.000000	
[MidTorso1]
#Fr     Tx      Ty      Tz      Rx      Ry      Rz      SF
214	0.000000	0.000000	0.000000	5.172706	1.049012	-0.896927	1.000000	
215	0.000000	0.000000	0.000000	5.012867	0.976909	-0.964778	1.000000	
216	0.000000	0.000000	0.000000	4.870422	0.874294	-1.040439	1.000000	
217	0.000000	0.000000	0.000000	4.762511	0.751300	-1.143617	1.000000	
[MidTorso2]
#Fr     Tx      Ty      Tz      Rx      Ry      Rz      SF
214	0.000000	0.000000	0.000000	5.173719	1.170117	-0.730099	1.000000	
215	0.000000	0.000000	0.000000	5.013519	1.108987	-0.807965	1.000000	
216	0.000000	0.000000	0.000000	4.870606	1.018850	-0.898109	1.000000	
217	0.000000	0.000000	0.000000	4.762108	0.912664	-1.018506	1.000000	
[UpperTorso]
#Fr     Tx      Ty      Tz      Rx      Ry      Rz      SF
214	0.000000	0.000000	0.000000	5.174368	1.262421	-0.561208	1.000000	
215	0.000000	0.000000	0.000000	5.013904	1.212537	-0.646786	1.000000	
216	0.000000	0.000000	0.000000	4.870630	1.135626	-0.748529	1.000000	
217	0.000000	0.000000	0.000000	4.761671	1.047013	-0.882445	1.000000	
[Neck]
#Fr     Tx      Ty      Tz      Rx      Ry      Rz      SF
214	0.000000	0.000000	0.000000	-12.408217	-2.112342	-3.109916	1.000000	
215	0.000000	0.000000	0.000000	-11.406792	-0.990411	-0.961949	1.000000	
216	0.000000	0.000000	0.000000	-10.630304	-0.043080	1.021275	1.000000	
217	0.000000	0.000000	0.000000	-10.093072	0.635074	2.687490	1.000000	
[Head]
#Fr     Tx      Ty      Tz      Rx      Ry      Rz      SF
214	0.000000	0.000000	0.000000	-4.106439	-7.738837	-0.852769	1.000000	
215	0.000000	0.000000	0.000000	-4.165182	-7.011273	-0.719122	1.000000	
216	0.000000	0.000000	0.000000	-4.238445	-6.076769	-0.592781	1.000000	
217	0.000000	0.000000	0.000000	-4.281340	-5.090118	-0.518125	1.000000	
[LCollar]
#Fr     Tx      Ty      Tz      Rx      Ry      Rz      SF
214	0.000000	0.000000	0.000000	6.268360	2.361070	-20.558228	1.000000	
215	0.000000	0.000000	0.000000	6.349305	2.345335	-20.191395	1.000000	
216	0.000000	0.000000	0.000000	6.357498	2.316323	-19.937695	1.000000	
217	0.000000	0.000000	0.000000	6.296241	2.277776	-19.809263	1.000000	
[LUpArm]
#Fr     Tx      Ty      Tz      Rx      Ry      Rz      SF
214	0.000000	0.000000	0.000000	-1.750326	30.602175	-53.162163	1.000000	
215	0.000000	0.000000	0.000000	-3.038733	31.599356	-53.874168	1.000000	
216	0.000000	0.000000	0.000000	-4.309174	32.648621	-54.493946	1.000000	
217	0.000000	0.000000	0.000000	-5.457338	33.746357	-54.946041	1.000000	
[LLowArm]
#Fr     Tx      Ty      Tz      Rx      Ry      Rz      SF
214	0.000000	0.000000	0.000000	30.249569	-0.006199	-0.001695	1.000000	
215	0.000000	0.000000	0.000000	30.433386	-0.006233	-0.001715	1.000000	
216	0.000000	0.000000	0.000000	30.569479	-0.006258	-0.001730	1.000000	
217	0.000000	0.000000	0.000000	30.561617	-0.006256	-0.001729	1.000000	
[LHand]
#Fr     Tx      Ty      Tz      Rx      Ry      Rz      SF
214	0.000000	0.000000	0.000000	-1.147572	-0.325388	-6.134666	1.000000	
215	0.000000	0.000000	0.000000	-0.805057	-0.641885	-6.386391	1.000000	
216	0.000000	0.000000	0.000000	-0.242970	-1.090812	-6.628923	1.000000	
217	0.000000	0.000000	0.000000	0.484269	-1.596923	-6.941267	1.000000	
[RCollar]
#Fr     Tx      Ty      Tz      Rx      Ry      Rz      SF
214	0.000000	0.000000	0.000000	-1.706444	0.447264	14.681665	1.000000	
215	0.000000	0.000000	0.000000	-2.080961	0.554303	14.908148	1.000000	
216	0.000000	0.000000	0.000000	-2.358892	0.635419	15.066863	1.000000	
217	0.000000	0.000000	0.000000	-2.490374	0.677341	15.205291	1.000000	
[RUpArm]
#Fr     Tx      Ty      Tz      Rx      Ry      Rz      SF
214	0.000000	0.000000	0.000000	15.618536	-40.760838	38.235138	1.000000	
215	0.000000	0.000000	0.000000	15.172373	-39.989399	38.833488	1.000000	
216	0.000000	0.000000	0.000000	14.702127	-39.160286	39.632275	1.000000	
217	0.000000	0.000000	0.000000	14.182588	-38.241768	40.582069	1.000000	
[RLowArm]
#Fr     Tx      Ty      Tz      Rx      Ry      Rz      SF
214	0.000000	0.000000	0.000000	35.863213	0.000098	0.000019	1.000000	
215	0.000000	0.000000	0.000000	35.653111	0.000098	0.000019	1.000000	
216	0.000000	0.000000	0.000000	35.288708	0.000097	0.000018	1.000000	
217	0.000000	0.000000	0.000000	34.805828	0.000096	0.000018	1.000000	
[RHand]
#Fr     Tx      Ty      Tz      Rx      Ry      Rz      SF
214	0.000000	0.000000	0.000000	-3.966688	2.351840	4.713457	1.000000	
215	0.000000	0.000000	0.000000	-4.390615	3.316565	3.256480	1.000000	
216	0.000000	0.000000	0.000000	-4.918028	4.403571	1.630241	1.000000	
217	0.000000	0.000000	0.000000	-5.391293	5.480476	-0.145598	1.000000	
[RThigh]
#Fr     Tx      Ty      Tz      Rx      Ry      Rz      SF
214	0.000000	0.000000	0.000000	-7.712065	7.154862	2.062490	1.000000	
215	0.000000	0.000000	0.000000	-8.181662	6.763741	2.106226	1.000000	
216	0.000000	0.000000	0.000000	-8.602851	6.361185	2.113354	1.000000	
217	0.000000	0.000000	0.000000	-8.884184	5.916429	2.042580	1.000000	
[RLowLeg]
#Fr     Tx      Ty      Tz      Rx      Ry      Rz      SF
214	0.000000	0.000000	0.000000	0.610162	0.000000	0.000000	1.000000	
215	0.000000	0.000000	0.000000	0.388228	0.000000	0.000000	1.000000	
216	0.000000	0.000000	0.000000	-0.046815	0.000000	0.000000	1.000000	
217	0.000000	0.000000	0.000000	-0.867495	0.000001	0.000000	1.000000	
[RFoot]
#Fr     Tx      Ty      Tz      Rx      Ry      Rz      SF
214	0.000000	0.000000	0.000000	6.397026	2.509733	-3.490829	1.000000	
215	0.000000	0.000000	0.000000	6.618013	3.012522	-3.514367	1.000000	
216	0.000000	0.000000	0.000000	6.908144	3.535312	-3.553511	1.000000	
217	0.000000	0.000000	0.000000	7.290659	4.134956	-3.596993	1.000000	
[RToe]
#Fr     Tx      Ty      Tz      Rx      Ry      Rz      SF
214	0.000000	0.000000	0.000000	2.077709	0.000001	0.000001	1.000000	
215	0.000000	0.000000	0.000000	2.323811	0.000001	0.000001	1.000000	
216	0.000000	0.000000	0.000000	2.606259	0.000001	0.000001	1.000000	
217	0.000000	0.000000	0.000000	2.856826	0.000001	0.000001	1.000000	
[LThigh]
#Fr     Tx      Ty      Tz      Rx      Ry      Rz      SF
214	0.000000	0.000000	0.000000	19.047277	-15.386110	-2.755532	1.000000	
215	0.000000	0.000000	0.000000	18.639725	-14.666947	-2.523710	1.000000	
216	0.000000	0.000000	0.000000	18.223099	-14.274241	-2.364426	1.000000	
217	0.000000	0.000000	0.000000	17.806110	-14.174414	-2.297711	1.000000	
[LLowLeg]
#Fr     Tx      Ty      Tz      Rx      Ry      Rz      SF
214	0.000000	0.000000	0.000000	-9.260207	0.000004	0.000000	1.000000	
215	0.000000	0.000000	0.000000	-8.653312	0.000004	0.000000	1.000000	
216	0.000000	0.000000	0.000000	-8.514481	0.000004	0.000000	1.000000	
217	0.000000	0.000000	0.000000	-8.789260	0.000004	0.000000	1.000000	
[LFoot]
#Fr     Tx      Ty      Tz      Rx      Ry      Rz      SF
214	0.000000	0.000000	0.000000	-2.503970	-6.995867	2.446926	1.000000	
215	0.000000	0.000000	0.000000	-2.200657	-6.600157	2.394696	1.000000	
216	0.000000	0.000000	0.000000	-2.299553	-5.972412	2.527290	1.000000	
217	0.000000	0.000000	0.000000	-2.627480	-5.347745	2.890067	1.000000	
[LToe]
#Fr     Tx      Ty      Tz      Rx      Ry      Rz      SF
214	0.000000	0.000000	0.000000	3.842557	0.000015	0.000000	1.000000	
215	0.000000	0.000000	0.000000	3.739155	0.000014	0.000000	1.000000	
216	0.000000	0.000000	0.000000	3.479399	0.000013	0.000000	1.000000	
217	0.000000	0.000000	0.000000	2.954231	0.000011	0.000000	1.000000	
[EndOfFile]
